<svg xmlns="http://www.w3.org/2000/svg" xmlns:xlink="http://www.w3.org/1999/xlink" width="1200" height="1200" viewBox="0 0 1200 1200"><g><rect width="100%" height="100%" fill="#E3E3E3"></rect><g transform="translate(600 600) scale(0.69 0.69) rotate(0) translate(-600 -600)" style="fill:#000000;"><svg fill="#000000" xmlns="http://www.w3.org/2000/svg" xmlns:xlink="http://www.w3.org/1999/xlink" version="1.1" x="0px" y="0px" viewBox="0 0 24 24" style="enable-background:new 0 0 24 24;" xml:space="preserve"><g><path d="M17.319,0H6.682C5.106,0,3.827,1.277,3.827,2.855v18.291C3.827,22.723,5.106,24,6.682,24h10.638   c1.576,0,2.854-1.277,2.854-2.854V2.855C20.174,1.277,18.896,0,17.319,0z M7.541,21.505c-0.765,0-1.384-0.62-1.384-1.386   s0.619-1.385,1.384-1.385c0.765,0,1.386,0.619,1.386,1.385S8.306,21.505,7.541,21.505z M7.541,17.07   c-0.765,0-1.384-0.618-1.384-1.385c0-0.765,0.619-1.385,1.384-1.385c0.765,0,1.386,0.62,1.386,1.385   C8.926,16.452,8.306,17.07,7.541,17.07z M7.541,12.637c-0.765,0-1.384-0.619-1.384-1.386c0-0.765,0.619-1.384,1.384-1.384   c0.765,0,1.386,0.619,1.386,1.384C8.926,12.018,8.306,12.637,7.541,12.637z M12.002,21.505c-0.765,0-1.384-0.62-1.384-1.386   s0.619-1.385,1.384-1.385c0.764,0,1.383,0.619,1.383,1.385S12.767,21.505,12.002,21.505z M12.002,17.07   c-0.765,0-1.384-0.618-1.384-1.385c0-0.765,0.619-1.385,1.384-1.385c0.764,0,1.383,0.62,1.383,1.385   C13.386,16.452,12.767,17.07,12.002,17.07z M12.002,12.637c-0.765,0-1.384-0.619-1.384-1.386c0-0.765,0.619-1.384,1.384-1.384   c0.764,0,1.383,0.619,1.383,1.384C13.386,12.018,12.767,12.637,12.002,12.637z M16.463,21.505c-0.762,0-1.383-0.62-1.383-1.386   s0.621-1.385,1.383-1.385c0.763,0,1.384,0.619,1.384,1.385S17.226,21.505,16.463,21.505z M16.463,17.07   c-0.762,0-1.383-0.618-1.383-1.385c0-0.765,0.621-1.385,1.383-1.385c0.763,0,1.384,0.62,1.384,1.385   C17.847,16.452,17.226,17.07,16.463,17.07z M16.463,12.637c-0.762,0-1.383-0.619-1.383-1.386c0-0.765,0.621-1.384,1.383-1.384   c0.763,0,1.384,0.619,1.384,1.384C17.847,12.018,17.226,12.637,16.463,12.637z M17.891,5.955c0,0.315-0.257,0.571-0.571,0.571   H6.682c-0.314,0-0.569-0.256-0.569-0.571V2.97c0-0.315,0.255-0.571,0.569-0.571h10.638c0.314,0,0.571,0.256,0.571,0.571V5.955z"></path><path d="M16.114,3.302c-0.261,0-0.472,0.212-0.472,0.471v1.44c0,0.261,0.211,0.473,0.472,0.473c0.262,0,0.472-0.211,0.472-0.473   v-1.44C16.586,3.514,16.376,3.302,16.114,3.302z"></path><path d="M14.225,3.302c-0.262,0-0.473,0.212-0.473,0.471v1.44c0,0.261,0.211,0.473,0.473,0.473c0.261,0,0.472-0.211,0.472-0.473   v-1.44C14.696,3.514,14.485,3.302,14.225,3.302z"></path></g></svg></g></g></svg>